<svg width="24" height="24" viewBox="0 0 24 24" fill="none" xmlns="http://www.w3.org/2000/svg">
<path d="M16.6695 4.6108C16.6695 4.6108 19.1099 4.99133 20.1607 5.97994C20.9736 6.74496 21.3833 7.26576 21.6558 8.34615C21.9242 9.41045 21.5249 11.0873 21.5181 11.1157C21.5181 11.1157 23.0259 12.2488 23.523 13.1948C24.0763 14.2478 24.0961 15.0598 23.8463 16.2221C23.5951 17.3902 23.1232 17.9872 22.1734 18.7163C21.2749 19.4059 20.5917 19.6115 19.4576 19.6186C18.3029 19.6258 16.7525 18.6579 16.7427 18.6518L19.0699 15.2387C19.0523 15.2564 16.9669 17.3509 15.5709 18.2182C14.4691 18.9026 13.7523 19.1543 12.5406 19.6186C11.2943 20.0961 10.6307 20.3438 9.30719 20.52C8.00582 20.6931 5.75152 20.52 5.75152 20.52C5.75152 20.52 8.02984 20.1846 9.29938 19.6997C10.7652 19.1398 11.5291 18.6688 12.855 17.8315C14.1046 17.0424 14.6875 16.6449 15.7076 15.5776C16.6204 14.6225 17.2537 13.9936 17.8336 12.8081C18.467 11.5128 18.9225 10.7049 18.8677 9.2651C18.8281 8.22249 18.6313 7.61902 18.1568 6.68893C17.7243 5.84128 16.6695 4.6108 16.6695 4.6108ZM10.7867 3.00631C11.6918 2.95346 12.7758 3.23414 13.8248 3.79049C15.1666 4.50221 16.5484 6.68893 16.5484 6.68893L12.0152 14.0317C12.0152 14.0317 10.7872 11.8546 10.4634 11.6489C10.1401 11.4445 9.84023 11.4367 9.55816 11.6489C9.28429 11.8551 9.23471 12.1527 9.29938 12.4858C9.36406 12.819 11.1744 15.5024 11.1744 15.5024C11.186 15.5194 11.6625 16.2104 12.0152 16.2104C12.461 16.2101 12.844 15.5224 12.855 15.5024L17.1304 8.49264C17.1282 8.52051 16.9656 10.5641 16.6695 11.6489C16.3876 12.6812 15.8215 13.4704 15.191 14.3364C14.2371 15.6465 13.6281 16.2005 12.2818 17.1059C11.0533 17.9321 10.6965 18.1691 9.30719 18.7163C7.91172 19.2659 6.9715 19.6997 5.54938 19.6997C4.14733 19.6996 3.36128 19.4247 2.13141 18.6518C1.07134 17.9855 0.298362 16.272 0.0630469 15.0454C-0.257873 13.3722 0.750008 11.9168 0.765195 11.895C0.758239 11.8835 0.406605 11.3009 0.248594 10.9399C-0.0100296 10.3491 0.0751094 9.75069 0.320859 9.18405C0.516452 8.73317 0.874654 8.24978 1.47711 7.91256C2.1975 7.50943 2.71432 7.63817 2.9068 7.7026C3.40992 7.87114 3.7084 8.09916 4.06305 8.49264C4.39596 8.86215 4.77398 9.58737 4.77398 9.58737C4.77398 9.58737 4.66126 6.94799 5.54938 5.65865C6.2212 4.68384 6.58395 4.4228 7.74762 3.78951C8.91133 3.1562 9.88149 3.05925 10.7867 3.00631ZM8.13629 10.478C7.8329 10.4958 7.68365 10.666 7.4898 10.9633C7.29585 11.2609 5.48492 14.313 5.48492 14.313L3.48102 10.9633C3.47447 10.9521 3.21675 10.5132 2.77008 10.5131C2.31764 10.5131 2.12369 10.899 2.12359 11.0922V15.601C2.12359 15.8889 2.51917 16.2053 2.84234 16.2055C3.16559 16.2055 3.54547 15.9875 3.54547 15.601V13.435L4.90387 15.601C4.90759 15.6086 5.19205 16.1901 5.48492 16.2055C5.79779 16.2215 6.12751 15.6083 6.13141 15.601L7.4898 13.435C7.4898 13.435 7.42439 15.2786 7.42438 15.601C7.42438 15.9229 7.81875 16.1972 8.07086 16.2114C8.34353 16.2265 8.78277 15.889 8.78277 15.601V11.0922C8.78267 10.7704 8.45692 10.4594 8.13629 10.478Z" fill="#00CCFF"/>
</svg>
